<svg xmlns="http://www.w3.org/2000/svg" viewBox="0 0 13.808 13.808"><defs><style>.a{fill:none;}.b{fill:#aaa;}</style></defs><g transform="translate(-144.5 -236.692)"><path class="a" d="M0,0H13.808V13.808H0Z" transform="translate(144.5 236.692)"/><path class="b" d="M9.507,3.2l-2.14,3.5a.574.574,0,0,0,.489.875H12.13a.574.574,0,0,0,.489-.875L10.485,3.2A.571.571,0,0,0,9.507,3.2Z" transform="translate(141.408 235.452)"/><circle class="b" cx="2.589" cy="2.589" r="2.589" transform="translate(151.98 244.171)"/><path class="b" d="M3.575,18.1H7.027a.577.577,0,0,0,.575-.575V14.075a.577.577,0,0,0-.575-.575H3.575A.577.577,0,0,0,3,14.075v3.452A.577.577,0,0,0,3.575,18.1Z" transform="translate(143.226 230.959)"/></g></svg>