<?xml version="1.0" encoding="utf-8"?>
<!-- Generator: Adobe Illustrator 22.1.0, SVG Export Plug-In . SVG Version: 6.00 Build 0)  -->
<svg version="1.1" id="Warstwa_1" xmlns="http://www.w3.org/2000/svg" xmlns:xlink="http://www.w3.org/1999/xlink" x="0px" y="0px"
	 viewBox="0 0 1200 327" style="enable-background:new 0 0 1200 327;" xml:space="preserve">
<style type="text/css">
	.st0{fill:#222222;}
	.st1{fill:#32DFFF;}
</style>
<g>
	<path class="st0" d="M375.5,223.8c2.8,3.3,4.2,7.5,4.2,12.8c0,6.5-3.6,12-10.7,16.4c-7.1,4.5-15.1,6.7-24,6.7
		c-14.9,0-27.5-3.2-37.8-9.6c-10.2-6.4-15.4-19.9-15.4-40.7v-99.7h-16.6c-5.8,0-10.6-1.9-14.5-5.8c-3.9-3.9-5.8-8.7-5.8-14.5
		c0-5.5,1.9-10.2,5.8-13.9c3.9-3.7,8.7-5.6,14.5-5.6h16.6V46.9c0-6.3,2.1-11.5,6.3-15.7c4.2-4.2,9.5-6.3,15.7-6.3
		c6,0,11.1,2.1,15.2,6.3c4.1,4.2,6.1,9.5,6.1,15.7V70h25.7c5.8,0,10.6,1.9,14.5,5.8c3.9,3.9,5.8,8.7,5.8,14.5
		c0,5.5-1.9,10.2-5.8,13.9c-3.9,3.7-8.7,5.6-14.5,5.6h-25.7v97.9c0,5.1,1.3,8.7,4,11c2.6,2.3,6.3,3.4,10.8,3.4c1.9,0,4.6-0.5,8-1.4
		c2.9-1.2,5.7-1.8,8.3-1.8C369.7,218.9,372.7,220.5,375.5,223.8z"/>
	<path class="st0" d="M573.7,215.1c-8.7,15.3-20.5,27.2-35.6,35.6c-15.1,8.4-31.6,12.6-49.7,12.6c-18.3,0-34.9-4.2-49.9-12.6
		c-14.9-8.4-26.7-20.3-35.4-35.6c-8.7-15.3-13-32.6-13-51.9c0-19.3,4.3-36.6,13-51.9c8.7-15.3,20.5-27.2,35.4-35.8
		c14.9-8.5,31.6-12.8,49.9-12.8c18.1,0,34.6,4.3,49.7,12.8c15.1,8.6,26.9,20.5,35.6,35.8c8.7,15.3,13,32.6,13,51.9
		C586.7,182.5,582.4,199.8,573.7,215.1z M536,131.6c-4.9-9.3-11.6-16.4-19.9-21.5c-8.3-5.1-17.5-7.6-27.6-7.6s-19.3,2.5-27.6,7.6
		c-8.3,5.1-14.9,12.2-19.9,21.5c-4.9,9.3-7.4,19.8-7.4,31.6c0,11.8,2.5,22.3,7.4,31.4c4.9,9.2,11.6,16.3,19.9,21.3
		c8.3,5.1,17.5,7.6,27.6,7.6s19.3-2.5,27.6-7.6c8.3-5.1,14.9-12.2,19.9-21.3c4.9-9.2,7.4-19.6,7.4-31.4
		C543.4,151.4,540.9,140.9,536,131.6z"/>
	<path class="st0" d="M767.4,72.7c4.1,4.2,6.1,9.5,6.1,15.7v91.8c0,26-7.2,46.4-21.5,61.1c-14.3,14.7-34.8,22-61.3,22
		c-26.5,0-46.9-7.3-61.1-22c-14.2-14.7-21.3-35.1-21.3-61.1V88.4c0-6.3,2-11.5,6.1-15.7c4.1-4.2,9.3-6.3,15.5-6.3
		c6.3,0,11.4,2.1,15.5,6.3c4.1,4.2,6.1,9.5,6.1,15.7v91.8c0,14.7,3.3,25.6,9.8,32.7c6.5,7.1,16.3,10.7,29.3,10.7
		c13.2,0,23.1-3.6,29.6-10.7c6.5-7.1,9.8-18,9.8-32.7V88.4c0-6.3,2-11.5,6.1-15.7c4.1-4.2,9.3-6.3,15.5-6.3
		C758.1,66.4,763.3,68.5,767.4,72.7z"/>
	<path class="st0" d="M921.2,68.9c4.9,4.1,7.4,8.9,7.4,14.5c0,7.5-1.9,13.1-5.8,16.8c-3.9,3.7-8.4,5.6-13.7,5.6
		c-3.6,0-7.7-0.8-12.3-2.5c-0.7-0.2-2.3-0.7-4.9-1.4c-2.5-0.7-5.2-1.1-8.1-1.1c-6.3,0-12.3,1.9-18.1,5.8
		c-5.8,3.9-10.5,9.7-14.3,17.5c-3.7,7.8-5.6,17.2-5.6,28v85.6c0,6.3-2.1,11.5-6.1,15.7c-4.1,4.2-9.3,6.3-15.5,6.3
		c-6.3,0-11.4-2.1-15.5-6.3c-4.1-4.2-6.1-9.5-6.1-15.7V88.4c0-6.3,2-11.5,6.1-15.7c4.1-4.2,9.3-6.3,15.5-6.3
		c6.3,0,11.4,2.1,15.5,6.3c4.1,4.2,6.1,9.5,6.1,15.7v4.7c5.5-9.9,13.5-17.4,23.9-22.6c10.4-5.2,21.4-7.8,33.2-7.8
		C910.2,62.8,916.3,64.8,921.2,68.9z"/>
	<path class="st0" d="M951.7,38.9c-3.4-2.6-5.1-7.3-5.1-14.1V18c0-6.7,1.8-11.4,5.4-14.1c3.6-2.6,9.4-4,17.3-4
		c8.4,0,14.3,1.3,17.7,4c3.4,2.7,5.1,7.4,5.1,14.1v6.9c0,7-1.8,11.7-5.2,14.3c-3.5,2.5-9.5,3.8-17.9,3.8
		C960.9,42.9,955.1,41.6,951.7,38.9z M985,253.4c-4.1,4.2-9.3,6.3-15.5,6.3c-6.3,0-11.4-2.1-15.5-6.3c-4.1-4.2-6.1-9.5-6.1-15.7
		V88.4c0-6.3,2-11.5,6.1-15.7c4.1-4.2,9.3-6.3,15.5-6.3c6.3,0,11.4,2.1,15.5,6.3c4.1,4.2,6.1,9.5,6.1,15.7v149.3
		C991.1,243.9,989.1,249.2,985,253.4z"/>
	<path class="st0" d="M1193.1,172.6c-4.3,3.6-9.4,5.4-15.2,5.4h-119.3c2.9,14.2,9.5,25.4,19.9,33.4c10.4,8.1,22,12.1,35.1,12.1
		c9.9,0,17.6-0.9,23.1-2.7c5.5-1.8,9.9-3.7,13.2-5.8c3.3-2,5.5-3.4,6.7-4.2c4.3-2.2,8.4-3.3,12.3-3.3c5.1,0,9.4,1.8,13,5.4
		c3.6,3.6,5.4,7.8,5.4,12.6c0,6.5-3.4,12.4-10.1,17.7c-6.7,5.5-15.8,10.2-27.1,14.1c-11.3,3.9-22.8,5.8-34.3,5.8
		c-20.2,0-37.9-4.2-52.9-12.6c-15.1-8.4-26.7-20.1-34.9-34.9c-8.2-14.8-12.3-31.5-12.3-50.1c0-20.7,4.3-38.9,13-54.6
		c8.7-15.7,20.1-27.6,34.3-36c14.2-8.3,29.4-12.5,45.5-12.5c15.9,0,30.9,4.3,45,13c14.1,8.7,25.4,20.4,33.8,35.1
		c8.4,14.7,12.6,30.6,12.6,47.7C1199.8,164.3,1197.5,169,1193.1,172.6z M1059.1,141.9h94.7v-2.5c-1-10.1-5.9-18.8-14.8-26
		c-8.9-7.2-19-10.8-30.4-10.8C1080.6,102.5,1064.1,115.7,1059.1,141.9z"/>
</g>
<circle class="st1" cx="100.7" cy="163.5" r="100.7"/>
</svg>
