<svg xmlns="http://www.w3.org/2000/svg" viewBox="0 0 14.674 14.674"><defs><style>.a{fill:none;}.b{fill:#aaa;}</style></defs><path class="a" d="M0,0H14.674V14.674H0Z"/><path class="b" d="M3.223,7.52V9.966a.917.917,0,1,0,1.834,0V7.52a.917.917,0,1,0-1.834,0Zm3.669,0V9.966a.917.917,0,0,0,1.834,0V7.52a.917.917,0,0,0-1.834,0ZM2.917,13.94H12.7a.917.917,0,1,0,0-1.834H2.917a.917.917,0,0,0,0,1.834ZM10.56,7.52V9.966a.917.917,0,0,0,1.834,0V7.52a.917.917,0,1,0-1.834,0ZM7.24,1.4,2.41,3.943A.762.762,0,0,0,2.764,5.38H12.859a.762.762,0,0,0,.349-1.437L8.377,1.4a1.208,1.208,0,0,0-1.137,0Z" transform="translate(-0.777 -0.489)"/></svg>